<svg xmlns="http://www.w3.org/2000/svg" viewBox="0 0 100 100" width="100" height="100">
  <rect x="15" y="10" width="70" height="80" rx="10" ry="10" fill="#1c1c1e"/>
  <rect x="22" y="17" width="56" height="22" rx="4" ry="4" fill="#2c2c2e"/>
  <text x="71" y="34" font-family="sans-serif" font-size="16" fill="white" text-anchor="end">0</text>
  <rect x="22" y="44" width="12" height="12" rx="2" fill="#48484a"/>
  <rect x="38" y="44" width="12" height="12" rx="2" fill="#48484a"/>
  <rect x="54" y="44" width="12" height="12" rx="2" fill="#48484a"/>
  <rect x="70" y="44" width="12" height="12" rx="2" fill="#ff9f0a"/>
  <rect x="22" y="60" width="12" height="12" rx="2" fill="#636366"/>
  <rect x="38" y="60" width="12" height="12" rx="2" fill="#636366"/>
  <rect x="54" y="60" width="12" height="12" rx="2" fill="#636366"/>
  <rect x="70" y="60" width="12" height="12" rx="2" fill="#ff9f0a"/>
  <rect x="22" y="76" width="28" height="12" rx="2" fill="#636366"/>
  <rect x="54" y="76" width="12" height="12" rx="2" fill="#636366"/>
  <rect x="70" y="76" width="12" height="12" rx="2" fill="#ff9f0a"/>
</svg>
